<svg width="30" height="30" viewBox="0 0 30 30" fill="none" xmlns="http://www.w3.org/2000/svg">
<g clip-path="url(#clip0_2_1396)">
<path d="M20.1084 14.715C19.496 13.931 18.721 13.169 18.072 13.0741C17.423 12.9793 16.9992 13.1992 16.0956 14.0734C15.6019 14.5511 10.2385 19.9123 9.98114 20.3554C9.72375 20.7984 9.65875 21.2409 9.93405 21.7156C10.2001 22.1741 10.9779 23.0989 11.7386 23.465C12.3303 23.7498 12.8195 23.8432 13.7136 23.0405C14.4192 22.4071 19.7385 17.0929 20.2547 16.1582C20.5383 15.6453 20.431 15.1281 20.1084 14.715Z" fill="white"/>
<path d="M19.1866 17.192C19.9701 16.5792 20.7316 15.8036 20.8264 15.1542C20.9212 14.5047 20.7014 14.0805 19.8278 13.1763C19.3504 12.6823 13.593 6.91468 13.1503 6.6573C12.7076 6.39972 12.2654 6.33467 11.7911 6.61017C11.3328 6.87641 10.4087 7.65479 10.0429 8.41604C9.7583 9.00813 9.66493 9.49771 10.4671 10.3925C11.1499 11.1541 16.8385 16.8374 17.7445 17.3386C18.2573 17.6222 18.7741 17.5148 19.1866 17.192Z" fill="white"/>
</g>
<defs>
<clipPath id="clip0_2_1396">
<rect width="11.25" height="17.5" fill="white" transform="translate(9.61697 6.25)"/>
</clipPath>
</defs>
</svg>
