<svg width="30" height="30" viewBox="0 0 30 30" fill="none" xmlns="http://www.w3.org/2000/svg">
<g clip-path="url(#clip0_2_1386)">
<path d="M6.36712 13.7861C6.2495 14.7739 6.25889 15.8612 6.63995 16.3875C7.021 16.9137 7.4637 17.0583 8.68572 17.0792C9.3533 17.0907 23.2921 17.0949 23.7736 16.9638C24.255 16.8325 24.6038 16.5659 24.7406 16.0354C24.8729 15.5229 24.9735 14.3186 24.7018 13.5215C24.4906 12.9014 24.2184 12.4891 23.052 12.4241C22.1315 12.3727 8.25516 12.3665 7.2582 12.6619C6.71079 12.8243 6.42916 13.2659 6.36712 13.7861Z" fill="white"/>
<path d="M5.71792 15.2053C6.31348 15.9893 7.06716 16.7514 7.69833 16.8463C8.3295 16.9411 8.74167 16.7212 9.62042 15.847C10.1005 15.3693 15.3164 10.0081 15.5667 9.565C15.8171 9.12194 15.8803 8.67949 15.6125 8.20481C15.3538 7.74625 14.5974 6.82146 13.8576 6.45534C13.2822 6.17057 12.8064 6.07713 11.9369 6.87987C11.2505 7.51304 6.07745 12.8275 5.57545 13.762C5.29988 14.2751 5.4042 14.7923 5.71792 15.2053Z" fill="white"/>
<path d="M6.61448 12.7284C5.85258 13.3413 5.112 14.1168 5.01982 14.7663C4.92764 15.4158 5.14136 15.8399 5.99095 16.7442C6.45518 17.2382 12.0543 23.0058 12.4849 23.2632C12.9154 23.5207 13.3454 23.5858 13.8067 23.3103C14.2523 23.044 15.151 22.2657 15.5069 21.5044C15.7836 20.9123 15.8744 20.4228 15.0943 19.528C14.4302 18.7663 8.89825 13.0831 8.01715 12.582C7.51848 12.2985 7.01589 12.4056 6.61448 12.7284Z" fill="white"/>
</g>
<defs>
<clipPath id="clip0_2_1386">
<rect width="20" height="17.5" fill="white" transform="translate(5 6.25)"/>
</clipPath>
</defs>
</svg>
